<svg width="640" height="640" viewBox="0 0 640 640" fill="none" xmlns="http://www.w3.org/2000/svg">
<path d="M160 96C124.7 96 96 124.7 96 160V480C96 515.3 124.7 544 160 544H480C515.3 544 544 515.3 544 480V160C544 124.7 515.3 96 480 96H160ZM224 176C250.5 176 272 197.5 272 224C272 250.5 250.5 272 224 272C197.5 272 176 250.5 176 224C176 197.5 197.5 176 224 176ZM368 288C376.4 288 384.1 292.4 388.5 299.5L476.5 443.5C481 450.9 481.2 460.2 477 467.8C472.8 475.4 464.7 480 456 480H184C175.1 480 166.8 475 162.7 467.1C158.6 459.2 159.2 449.6 164.3 442.3L220.3 362.3C224.8 355.9 232.1 352.1 240 352.1C247.9 352.1 255.2 355.9 259.7 362.3L286.1 400.1L347.5 299.6C351.9 292.5 359.6 288.1 368 288.1V288Z" fill="black"/>
</svg>
