<svg width="640" height="640" viewBox="0 0 640 640" fill="none" xmlns="http://www.w3.org/2000/svg">
<path d="M96 160C96 124.7 124.7 96 160 96H480C515.3 96 544 124.7 544 160V480C544 515.3 515.3 544 480 544H160C124.7 544 96 515.3 96 480V160ZM144 432V464C144 472.8 151.2 480 160 480H192C200.8 480 208 472.8 208 464V432C208 423.2 200.8 416 192 416H160C151.2 416 144 423.2 144 432ZM448 416C439.2 416 432 423.2 432 432V464C432 472.8 439.2 480 448 480H480C488.8 480 496 472.8 496 464V432C496 423.2 488.8 416 480 416H448ZM144 304V336C144 344.8 151.2 352 160 352H192C200.8 352 208 344.8 208 336V304C208 295.2 200.8 288 192 288H160C151.2 288 144 295.2 144 304ZM448 288C439.2 288 432 295.2 432 304V336C432 344.8 439.2 352 448 352H480C488.8 352 496 344.8 496 336V304C496 295.2 488.8 288 480 288H448ZM144 176V208C144 216.8 151.2 224 160 224H192C200.8 224 208 216.8 208 208V176C208 167.2 200.8 160 192 160H160C151.2 160 144 167.2 144 176ZM448 160C439.2 160 432 167.2 432 176V208C432 216.8 439.2 224 448 224H480C488.8 224 496 216.8 496 208V176C496 167.2 488.8 160 480 160H448Z" fill="black"/>
</svg>
